<svg width="15" height="15" viewBox="0 0 15 15" fill="none" xmlns="http://www.w3.org/2000/svg">
<path d="M3.36396 1.24267C2.77817 0.65688 1.82843 0.65688 1.24264 1.24267C0.656854 1.82845 0.656854 2.7782 1.24264 3.36399L3.36396 1.24267ZM11.8492 13.9706C12.435 14.5564 13.3848 14.5564 13.9706 13.9706C14.5564 13.3848 14.5564 12.4351 13.9706 11.8493L11.8492 13.9706ZM1.24264 11.8493C0.656854 12.4351 0.656854 13.3848 1.24264 13.9706C1.82843 14.5564 2.77817 14.5564 3.36396 13.9706L1.24264 11.8493ZM13.9706 3.36399C14.5564 2.7782 14.5564 1.82845 13.9706 1.24267C13.3848 0.65688 12.435 0.65688 11.8492 1.24267L13.9706 3.36399ZM1.24264 3.36399L6.54594 8.66729L8.66726 6.54597L3.36396 1.24267L1.24264 3.36399ZM6.54594 8.66729L11.8492 13.9706L13.9706 11.8493L8.66726 6.54597L6.54594 8.66729ZM6.54594 6.54597L1.24264 11.8493L3.36396 13.9706L8.66726 8.66729L6.54594 6.54597ZM8.66726 8.66729L13.9706 3.36399L11.8492 1.24267L6.54594 6.54597L8.66726 8.66729Z" fill="#686868"/>
</svg>
